<svg width="30" height="30" viewBox="0 0 40 40" fill="none" xmlns="http://www.w3.org/2000/svg">
<g id="Group">
<path id="Vector" d="M8.53516 22.5H27.5C28.163 22.5 28.7989 22.2366 29.2678 21.7678C29.7366 21.2989 30 20.663 30 20C30 19.337 29.7366 18.7011 29.2678 18.2322C28.7989 17.7634 28.163 17.5 27.5 17.5H8.53516L11.7676 14.2676C12.2342 13.7983 12.4957 13.1632 12.4948 12.5014C12.4939 11.8397 12.2306 11.2053 11.7627 10.7373C11.2947 10.2694 10.6603 10.0061 9.99855 10.0052C9.33679 10.0043 8.70165 10.2658 8.23241 10.7324L0.732412 18.2324C0.500216 18.4645 0.316022 18.7401 0.190352 19.0433C0.0646826 19.3466 0 19.6717 0 20C0 20.3283 0.0646826 20.6534 0.190352 20.9567C0.316022 21.2599 0.500216 21.5355 0.732412 21.7676L8.23241 29.2676C8.4643 29.5008 8.73992 29.6859 9.04348 29.8124C9.34704 29.9389 9.67258 30.0042 10.0014 30.0047C10.3303 30.0051 10.656 29.9407 10.9599 29.8151C11.2638 29.6894 11.54 29.5051 11.7725 29.2725C12.005 29.04 12.1894 28.7638 12.315 28.4599C12.4407 28.156 12.5051 27.8303 12.5047 27.5014C12.5042 27.1726 12.4389 26.8471 12.3124 26.5435C12.1859 26.2399 12.0008 25.9643 11.7676 25.7324L8.53516 22.5Z" fill="white"/>
<path id="Vector_2" d="M37.5 4.01881e-07H17.5C17.1716 -0.000185825 16.8465 0.0643515 16.5431 0.189922C16.2397 0.315493 15.964 0.499635 15.7318 0.731818C15.4996 0.964002 15.3155 1.23967 15.1899 1.54307C15.0644 1.84647 14.9998 2.17164 15 2.5V7.5C15 8.16304 15.2634 8.79893 15.7322 9.26777C16.2011 9.73661 16.837 10 17.5 10C18.163 10 18.7989 9.73661 19.2678 9.26777C19.7366 8.79893 20 8.16304 20 7.5V5H35V35H20V32.5C20 31.837 19.7366 31.2011 19.2678 30.7322C18.7989 30.2634 18.163 30 17.5 30C16.837 30 16.2011 30.2634 15.7322 30.7322C15.2634 31.2011 15 31.837 15 32.5V37.5C14.9998 37.8284 15.0644 38.1535 15.1899 38.4569C15.3155 38.7603 15.4996 39.036 15.7318 39.2682C15.964 39.5004 16.2397 39.6845 16.5431 39.8101C16.8465 39.9356 17.1716 40.0002 17.5 40H37.5C37.8284 40.0002 38.1535 39.9356 38.4569 39.8101C38.7603 39.6845 39.036 39.5004 39.2682 39.2682C39.5004 39.036 39.6845 38.7603 39.8101 38.4569C39.9357 38.1535 40.0002 37.8284 40 37.5V2.5C40.0002 2.17164 39.9357 1.84647 39.8101 1.54307C39.6845 1.23967 39.5004 0.964002 39.2682 0.731818C39.036 0.499635 38.7603 0.315493 38.4569 0.189922C38.1535 0.0643515 37.8284 -0.000185825 37.5 4.01881e-07Z" fill="white"/>
</g>
</svg>
